<?xml version="1.0" standalone="no"?>
 <!DOCTYPE svg PUBLIC "-//W3C//DTD SVG 1.1//EN" 
 "http://www.w3.org/Graphics/SVG/1.1/DTD/svg11.dtd"> 
<svg xmlns="http://www.w3.org/2000/svg" version="1.1" 
    width="29.7002cm" height="21.0007cm" viewBox="0 0 116930 82680 ">
<title>SVG Picture created as hardware-F_Mask.svg date 2020/04/15 19:30:32 </title>
  <desc>Picture generated by PCBNEW </desc>
<g style="fill:#000000; fill-opacity:1;stroke:#000000; stroke-opacity:1;
stroke-linecap:round; stroke-linejoin:round; "
 transform="translate(0 0) scale(1 1)">
</g>
<g style="fill:#000000; fill-opacity:0.0; 
stroke:#000000; stroke-width:-0.000393701; stroke-opacity:1; 
stroke-linecap:round; stroke-linejoin:round;">
</g>
<g style="fill:#000000; fill-opacity:1.0; 
stroke:#000000; stroke-width:0; stroke-opacity:1; 
stroke-linecap:round; stroke-linejoin:round;">
<path style="fill:#000000; fill-opacity:1.0; 
stroke:#000000; stroke-width:0; stroke-opacity:1; 
stroke-linecap:round; stroke-linejoin:round;fill-rule:evenodd;"
d="M 93131.3,72873.4
93117,72877.7
93103.7,72884.8
93092.1,72894.4
93082.5,72906
93075.4,72919.2
93071.1,72933.6
93069.4,72951
93069.4,73324.6
93071.1,73342
93075.4,73356.4
93082.5,73369.6
93092.1,73381.2
93103.7,73390.8
93117,73397.9
93131.3,73402.2
93148.7,73403.9
93719.2,73403.9
93736.5,73402.2
93750.9,73397.9
93764.2,73390.8
93775.8,73381.2
93785.3,73369.6
93792.4,73356.4
93796.8,73342
93798.5,73324.6
93798.5,72951
93796.8,72933.6
93792.4,72919.2
93785.3,72906
93775.8,72894.4
93764.2,72884.8
93750.9,72877.7
93736.5,72873.4
93719.2,72871.7
93148.7,72871.7
Z" /> 
<path style="fill:#000000; fill-opacity:1.0; 
stroke:#000000; stroke-width:0; stroke-opacity:1; 
stroke-linecap:round; stroke-linejoin:round;fill-rule:evenodd;"
d="M 103002,72293.5
102934,72321.7
102934,72321.7
102872,72362.7
102820,72414.9
102820,72414.9
102779,72476.2
102751,72544.3
102737,72616.7
102737,72690.4
102751,72762.8
102779,72830.9
102779,72830.9
102820,72892.2
102872,72944.4
102903,72965
102934,72985.3
103002,73013.6
103074,73028
103148,73028
103220,73013.6
103288,72985.3
103319,72965
103350,72944.4
103402,72892.2
103443,72830.9
103443,72830.9
103471,72762.8
103486,72690.4
103486,72616.7
103471,72544.3
103443,72476.2
103402,72414.9
103402,72414.9
103350,72362.7
103288,72321.7
103288,72321.7
103220,72293.5
103148,72279.1
103074,72279.1
Z" /> 
<path style="fill:#000000; fill-opacity:1.0; 
stroke:#000000; stroke-width:0; stroke-opacity:1; 
stroke-linecap:round; stroke-linejoin:round;fill-rule:evenodd;"
d="M 100060,73020.1
100808,73020.1
100808,72271.3
100060,72271.3
Z" /> 
<path style="fill:#000000; fill-opacity:1.0; 
stroke:#000000; stroke-width:0; stroke-opacity:1; 
stroke-linecap:round; stroke-linejoin:round;fill-rule:evenodd;"
d="M 104477,72500.4
105186,72500.4
105186,71790.9
104477,71790.9
Z" /> 
<path style="fill:#000000; fill-opacity:1.0; 
stroke:#000000; stroke-width:0; stroke-opacity:1; 
stroke-linecap:round; stroke-linejoin:round;fill-rule:evenodd;"
d="M 92149.1,71631.5
92090.3,71643.2
92025.8,71669.9
91967.7,71708.7
91918.2,71758.1
91879.4,71816.2
91852.7,71880.8
91839.1,71949.3
91839.1,72019.2
91852.7,72087.7
91879.4,72152.3
91918.2,72210.4
91967.7,72259.8
92025.8,72298.6
92090.3,72325.3
92149.1,72337
92158.8,72339
92228.7,72339
92238.5,72337
92297.2,72325.3
92361.8,72298.6
92419.9,72259.8
92469.3,72210.4
92508.1,72152.3
92534.9,72087.7
92548.5,72019.2
92548.5,71949.3
92534.9,71880.8
92508.1,71816.2
92469.3,71758.1
92419.9,71708.7
92361.8,71669.9
92297.2,71643.2
92238.5,71631.5
92228.7,71629.5
92158.8,71629.5
Z" /> 
<path style="fill:#000000; fill-opacity:1.0; 
stroke:#000000; stroke-width:0; stroke-opacity:1; 
stroke-linecap:round; stroke-linejoin:round;fill-rule:evenodd;"
d="M 93131.3,71771
93117,71775.4
93103.7,71782.5
93092.1,71792
93082.5,71803.6
93075.4,71816.9
93071.1,71831.3
93069.4,71848.6
93069.4,72222.2
93071.1,72239.6
93075.4,72254
93082.5,72267.3
93092.1,72278.9
93103.7,72288.4
93117,72295.5
93131.3,72299.9
93148.7,72301.6
93719.2,72301.6
93736.5,72299.9
93750.9,72295.5
93764.2,72288.4
93775.8,72278.9
93785.3,72267.3
93792.4,72254
93796.8,72239.6
93798.5,72222.2
93798.5,71848.6
93796.8,71831.3
93792.4,71816.9
93785.3,71803.6
93775.8,71792
93764.2,71782.5
93750.9,71775.4
93736.5,71771
93719.2,71769.3
93148.7,71769.3
Z" /> 
<path style="fill:#000000; fill-opacity:1.0; 
stroke:#000000; stroke-width:0; stroke-opacity:1; 
stroke-linecap:round; stroke-linejoin:round;fill-rule:evenodd;"
d="M 101141,71816.4
101126,71821
101112,71828.5
101099,71838.6
101089,71850.9
101082,71864.9
101077,71880.1
101075,71898.4
101075,72154.8
101077,72173
101082,72188.2
101089,72202.3
101099,72214.6
101112,72224.7
101126,72232.2
101141,72236.8
101159,72238.6
101583,72238.6
101601,72236.8
101616,72232.2
101630,72224.7
101643,72214.6
101653,72202.3
101660,72188.2
101665,72173
101667,72154.8
101667,71898.4
101665,71880.1
101660,71864.9
101653,71850.9
101643,71838.6
101630,71828.5
101616,71821
101601,71816.4
101583,71814.6
101159,71814.6
Z" /> 
<path style="fill:#000000; fill-opacity:1.0; 
stroke:#000000; stroke-width:0; stroke-opacity:1; 
stroke-linecap:round; stroke-linejoin:round;fill-rule:evenodd;"
d="M 101897,71816.4
101882,71821
101867,71828.5
101855,71838.6
101845,71850.9
101838,71864.9
101833,71880.1
101831,71898.4
101831,72154.8
101833,72173
101838,72188.2
101845,72202.3
101855,72214.6
101867,72224.7
101882,72232.2
101897,72236.8
101915,72238.6
102339,72238.6
102357,72236.8
102372,72232.2
102386,72224.7
102399,72214.6
102409,72202.3
102416,72188.2
102421,72173
102423,72154.8
102423,71898.4
102421,71880.1
102416,71864.9
102409,71850.9
102399,71838.6
102386,71828.5
102372,71821
102357,71816.4
102339,71814.6
101915,71814.6
Z" /> 
<path style="fill:#000000; fill-opacity:1.0; 
stroke:#000000; stroke-width:0; stroke-opacity:1; 
stroke-linecap:round; stroke-linejoin:round;fill-rule:evenodd;"
d="M 102737,72028
103486,72028
103486,71279.1
102737,71279.1
Z" /> 
<path style="fill:#000000; fill-opacity:1.0; 
stroke:#000000; stroke-width:0; stroke-opacity:1; 
stroke-linecap:round; stroke-linejoin:round;fill-rule:evenodd;"
d="M 100325,71285.6
100257,71313.9
100239,71325.3
100195,71354.8
100143,71407
100134,71421.2
100102,71468.3
100074,71536.5
100060,71608.8
100060,71682.5
100074,71754.9
100102,71823
100117,71845.6
100143,71884.3
100195,71936.5
100214,71949.3
100257,71977.5
100325,72005.7
100397,72020.1
100471,72020.1
100543,72005.7
100611,71977.5
100653,71949.3
100673,71936.5
100725,71884.3
100751,71845.6
100766,71823
100794,71754.9
100808,71682.5
100808,71608.8
100794,71536.5
100766,71468.3
100734,71421.2
100725,71407
100673,71354.8
100628,71325.3
100611,71313.9
100543,71285.6
100471,71271.3
100397,71271.3
Z" /> 
<path style="fill:#000000; fill-opacity:1.0; 
stroke:#000000; stroke-width:0; stroke-opacity:1; 
stroke-linecap:round; stroke-linejoin:round;fill-rule:evenodd;"
d="M 94874.5,71988.6
95583.9,71988.6
95583.9,71279.1
94874.5,71279.1
Z" /> 
<path style="fill:#000000; fill-opacity:1.0; 
stroke:#000000; stroke-width:0; stroke-opacity:1; 
stroke-linecap:round; stroke-linejoin:round;fill-rule:evenodd;"
d="M 101897,71078.2
101882,71082.8
101867,71090.3
101855,71100.4
101845,71112.7
101838,71126.7
101833,71141.9
101831,71160.2
101831,71416.6
101833,71434.8
101838,71450.1
101845,71464.1
101855,71476.4
101867,71486.5
101882,71494
101897,71498.6
101915,71500.4
102339,71500.4
102357,71498.6
102372,71494
102386,71486.5
102399,71476.4
102409,71464.1
102416,71450.1
102421,71434.8
102423,71416.6
102423,71160.2
102421,71141.9
102416,71126.7
102409,71112.7
102399,71100.4
102386,71090.3
102372,71082.8
102357,71078.2
102339,71076.4
101915,71076.4
Z" /> 
<path style="fill:#000000; fill-opacity:1.0; 
stroke:#000000; stroke-width:0; stroke-opacity:1; 
stroke-linecap:round; stroke-linejoin:round;fill-rule:evenodd;"
d="M 104787,70792.9
104728,70804.6
104664,70831.3
104605,70870.1
104556,70919.5
104517,70977.6
104490,71042.2
104477,71110.7
104477,71180.6
104490,71249.1
104517,71313.7
104556,71371.8
104605,71421.2
104664,71460
104728,71486.8
104786,71498.4
104797,71500.4
104867,71500.4
104877,71498.4
104935,71486.8
105000,71460
105058,71421.2
105107,71371.8
105146,71313.7
105173,71249.1
105186,71180.6
105186,71110.7
105173,71042.2
105146,70977.6
105107,70919.5
105058,70870.1
105000,70831.3
104935,70804.6
104876,70792.9
104867,70790.9
104797,70790.9
Z" /> 
<path style="fill:#000000; fill-opacity:1.0; 
stroke:#000000; stroke-width:0; stroke-opacity:1; 
stroke-linecap:round; stroke-linejoin:round;fill-rule:evenodd;"
d="M 101141,71078.2
101126,71082.8
101112,71090.3
101099,71100.4
101089,71112.7
101082,71126.7
101077,71141.9
101075,71160.2
101075,71416.6
101077,71434.8
101082,71450.1
101089,71464.1
101099,71476.4
101112,71486.5
101126,71494
101141,71498.6
101159,71500.4
101583,71500.4
101601,71498.6
101616,71494
101630,71486.5
101643,71476.4
101653,71464.1
101660,71450.1
101665,71434.8
101667,71416.6
101667,71160.2
101665,71141.9
101660,71126.7
101653,71112.7
101643,71100.4
101630,71090.3
101616,71082.8
101601,71078.2
101583,71076.4
101159,71076.4
Z" /> 
<path style="fill:#000000; fill-opacity:1.0; 
stroke:#000000; stroke-width:0; stroke-opacity:1; 
stroke-linecap:round; stroke-linejoin:round;fill-rule:evenodd;"
d="M 92149.1,70631.5
92090.3,70643.2
92025.8,70669.9
91967.7,70708.7
91918.2,70758.1
91879.4,70816.2
91852.7,70880.8
91839.1,70949.3
91839.1,71019.2
91852.7,71087.7
91879.4,71152.3
91918.2,71210.4
91967.7,71259.8
92025.8,71298.6
92090.3,71325.3
92149.1,71337
92158.8,71339
92228.7,71339
92238.5,71337
92297.2,71325.3
92361.8,71298.6
92419.9,71259.8
92469.3,71210.4
92508.1,71152.3
92534.9,71087.7
92548.5,71019.2
92548.5,70949.3
92534.9,70880.8
92508.1,70816.2
92469.3,70758.1
92419.9,70708.7
92361.8,70669.9
92297.2,70643.2
92238.5,70631.5
92228.7,70629.5
92158.8,70629.5
Z" /> 
<path style="fill:#000000; fill-opacity:1.0; 
stroke:#000000; stroke-width:0; stroke-opacity:1; 
stroke-linecap:round; stroke-linejoin:round;fill-rule:evenodd;"
d="M 97773.1,70460
97758.7,70464.3
97745.4,70471.4
97733.8,70481
97724.3,70492.6
97717.2,70505.8
97712.8,70520.2
97711.1,70537.6
97711.1,70911.2
97712.8,70928.6
97717.2,70943
97724.3,70956.2
97733.8,70967.9
97745.4,70977.4
97758.7,70984.5
97773.1,70988.8
97790.4,70990.6
98360.9,70990.6
98378.3,70988.8
98392.7,70984.5
98405.9,70977.4
98417.5,70967.9
98427.1,70956.2
98434.2,70943
98438.5,70928.6
98440.2,70911.2
98440.2,70537.6
98438.5,70520.2
98434.2,70505.8
98427.1,70492.6
98417.5,70481
98405.9,70471.4
98392.7,70464.3
98378.3,70460
98360.9,70458.3
97790.4,70458.3
Z" /> 
<path style="fill:#000000; fill-opacity:1.0; 
stroke:#000000; stroke-width:0; stroke-opacity:1; 
stroke-linecap:round; stroke-linejoin:round;fill-rule:evenodd;"
d="M 96698.3,70452.1
96683.9,70456.5
96670.6,70463.6
96659,70473.1
96649.5,70484.7
96642.4,70498
96638,70512.4
96636.3,70529.7
96636.3,70903.3
96638,70920.7
96642.4,70935.1
96649.5,70948.4
96659,70960
96670.6,70969.5
96683.9,70976.6
96698.3,70981
96715.6,70982.7
97286.1,70982.7
97303.5,70981
97317.9,70976.6
97331.1,70969.5
97342.7,70960
97352.3,70948.4
97359.4,70935.1
97363.7,70920.7
97365.4,70903.3
97365.4,70529.7
97363.7,70512.4
97359.4,70498
97352.3,70484.7
97342.7,70473.1
97331.1,70463.6
97317.9,70456.5
97303.5,70452.1
97286.1,70450.4
96715.6,70450.4
Z" /> 
<path style="fill:#000000; fill-opacity:1.0; 
stroke:#000000; stroke-width:0; stroke-opacity:1; 
stroke-linecap:round; stroke-linejoin:round;fill-rule:evenodd;"
d="M 99026.1,70787.8
100070,70787.8
100070,70330.3
99026.1,70330.3
Z" /> 
<path style="fill:#000000; fill-opacity:1.0; 
stroke:#000000; stroke-width:0; stroke-opacity:1; 
stroke-linecap:round; stroke-linejoin:round;fill-rule:evenodd;"
d="M 102009,70099.1
101948,70124.4
101894,70161
101847,70207.7
101810,70262.6
101785,70323.5
101772,70388.3
101772,70454.3
101785,70519
101810,70580
101847,70634.8
101894,70681.5
101948,70718.2
102009,70743.4
102074,70756.3
102140,70756.3
102205,70743.4
102266,70718.2
102321,70681.5
102367,70634.8
102404,70580
102429,70519
102442,70454.3
102442,70388.3
102429,70323.5
102404,70262.6
102367,70207.7
102321,70161
102266,70124.4
102205,70099.1
102140,70086.2
102074,70086.2
Z" /> 
<path style="fill:#000000; fill-opacity:1.0; 
stroke:#000000; stroke-width:0; stroke-opacity:1; 
stroke-linecap:round; stroke-linejoin:round;fill-rule:evenodd;"
d="M 94744.6,70510.2
95202,70510.2
95202,69466.1
94744.6,69466.1
Z" /> 
<path style="fill:#000000; fill-opacity:1.0; 
stroke:#000000; stroke-width:0; stroke-opacity:1; 
stroke-linecap:round; stroke-linejoin:round;fill-rule:evenodd;"
d="M 93878.4,70510.2
94335.9,70510.2
94335.9,69466.1
93878.4,69466.1
Z" /> 
<path style="fill:#000000; fill-opacity:1.0; 
stroke:#000000; stroke-width:0; stroke-opacity:1; 
stroke-linecap:round; stroke-linejoin:round;fill-rule:evenodd;"
d="M 104787,69792.9
104728,69804.6
104664,69831.3
104605,69870.1
104556,69919.5
104517,69977.6
104490,70042.2
104477,70110.7
104477,70180.6
104490,70249.1
104517,70313.7
104556,70371.8
104605,70421.2
104664,70460
104728,70486.8
104783,70497.7
104797,70500.4
104867,70500.4
104880,70497.7
104935,70486.8
105000,70460
105058,70421.2
105107,70371.8
105146,70313.7
105173,70249.1
105186,70180.6
105186,70110.7
105173,70042.2
105146,69977.6
105107,69919.5
105058,69870.1
105000,69831.3
104935,69804.6
104876,69792.9
104867,69790.9
104797,69790.9
Z" /> 
<path style="fill:#000000; fill-opacity:1.0; 
stroke:#000000; stroke-width:0; stroke-opacity:1; 
stroke-linecap:round; stroke-linejoin:round;fill-rule:evenodd;"
d="M 92149.1,69631.5
92090.3,69643.2
92025.8,69669.9
91967.7,69708.7
91918.2,69758.1
91879.4,69816.2
91852.7,69880.8
91839.1,69949.3
91839.1,70019.2
91852.7,70087.7
91879.4,70152.3
91918.2,70210.4
91967.7,70259.8
92025.8,70298.6
92090.3,70325.3
92149.1,70337
92158.8,70339
92228.7,70339
92238.5,70337
92297.2,70325.3
92361.8,70298.6
92419.9,70259.8
92469.3,70210.4
92508.1,70152.3
92534.9,70087.7
92548.5,70019.2
92548.5,69949.3
92534.9,69880.8
92508.1,69816.2
92469.3,69758.1
92419.9,69708.7
92361.8,69669.9
92297.2,69643.2
92238.5,69631.5
92228.7,69629.5
92158.8,69629.5
Z" /> 
<path style="fill:#000000; fill-opacity:1.0; 
stroke:#000000; stroke-width:0; stroke-opacity:1; 
stroke-linecap:round; stroke-linejoin:round;fill-rule:evenodd;"
d="M 99774.1,69921.7
100070,69921.7
100070,69464.2
99774.1,69464.2
Z" /> 
<path style="fill:#000000; fill-opacity:1.0; 
stroke:#000000; stroke-width:0; stroke-opacity:1; 
stroke-linecap:round; stroke-linejoin:round;fill-rule:evenodd;"
d="M 99026.1,69921.7
99322.1,69921.7
99322.1,69464.2
99026.1,69464.2
Z" /> 
<path style="fill:#000000; fill-opacity:1.0; 
stroke:#000000; stroke-width:0; stroke-opacity:1; 
stroke-linecap:round; stroke-linejoin:round;fill-rule:evenodd;"
d="M 97773.1,69357.6
97758.7,69362
97745.4,69369.1
97733.8,69378.6
97724.3,69390.2
97717.2,69403.5
97712.8,69417.9
97711.1,69435.3
97711.1,69808.8
97712.8,69826.2
97717.2,69840.6
97724.3,69853.9
97733.8,69865.5
97745.4,69875
97758.7,69882.1
97773.1,69886.5
97790.4,69888.2
98360.9,69888.2
98378.3,69886.5
98392.7,69882.1
98405.9,69875
98417.5,69865.5
98427.1,69853.9
98434.2,69840.6
98438.5,69826.2
98440.2,69808.8
98440.2,69435.3
98438.5,69417.9
98434.2,69403.5
98427.1,69390.2
98417.5,69378.6
98405.9,69369.1
98392.7,69362
98378.3,69357.6
98360.9,69355.9
97790.4,69355.9
Z" /> 
<path style="fill:#000000; fill-opacity:1.0; 
stroke:#000000; stroke-width:0; stroke-opacity:1; 
stroke-linecap:round; stroke-linejoin:round;fill-rule:evenodd;"
d="M 96698.3,69349.7
96683.9,69354.1
96670.6,69361.2
96659,69370.7
96649.5,69382.4
96642.4,69395.6
96638,69410
96636.3,69427.4
96636.3,69801
96638,69818.3
96642.4,69832.7
96649.5,69846
96659,69857.6
96670.6,69867.2
96683.9,69874.2
96698.3,69878.6
96715.6,69880.3
97286.1,69880.3
97303.5,69878.6
97317.9,69874.2
97331.1,69867.2
97342.7,69857.6
97352.3,69846
97359.4,69832.7
97363.7,69818.3
97365.4,69801
97365.4,69427.4
97363.7,69410
97359.4,69395.6
97352.3,69382.4
97342.7,69370.7
97331.1,69361.2
97317.9,69354.1
97303.5,69349.7
97286.1,69348
96715.6,69348
Z" /> 
<path style="fill:#000000; fill-opacity:1.0; 
stroke:#000000; stroke-width:0; stroke-opacity:1; 
stroke-linecap:round; stroke-linejoin:round;fill-rule:evenodd;"
d="M 101772,69772
102442,69772
102442,69102
101772,69102
Z" /> 
<path style="fill:#000000; fill-opacity:1.0; 
stroke:#000000; stroke-width:0; stroke-opacity:1; 
stroke-linecap:round; stroke-linejoin:round;fill-rule:evenodd;"
d="M 104787,68792.9
104728,68804.6
104664,68831.3
104605,68870.1
104556,68919.5
104517,68977.6
104490,69042.2
104477,69110.7
104477,69180.6
104490,69249.1
104517,69313.7
104556,69371.8
104605,69421.2
104664,69460
104728,69486.8
104787,69498.5
104797,69500.4
104867,69500.4
104876,69498.5
104935,69486.8
105000,69460
105058,69421.2
105107,69371.8
105146,69313.7
105173,69249.1
105186,69180.6
105186,69110.7
105173,69042.2
105146,68977.6
105107,68919.5
105058,68870.1
105000,68831.3
104935,68804.6
104876,68792.9
104867,68790.9
104797,68790.9
Z" /> 
<path style="fill:#000000; fill-opacity:1.0; 
stroke:#000000; stroke-width:0; stroke-opacity:1; 
stroke-linecap:round; stroke-linejoin:round;fill-rule:evenodd;"
d="M 91839.1,69339
92548.5,69339
92548.5,68629.5
91839.1,68629.5
Z" /> 
<path style="fill:#000000; fill-opacity:1.0; 
stroke:#000000; stroke-width:0; stroke-opacity:1; 
stroke-linecap:round; stroke-linejoin:round;fill-rule:evenodd;"
d="M 93595,68622.4
94501.3,68622.4
94501.3,67716.1
93595,67716.1
Z" /> 
<path style="fill:#000000; fill-opacity:1.0; 
stroke:#000000; stroke-width:0; stroke-opacity:1; 
stroke-linecap:round; stroke-linejoin:round;fill-rule:evenodd;"
d="M 97959.7,67724.8
97915.9,67733.6
97833.5,67767.7
97759.2,67817.3
97696.1,67880.4
97646.5,67954.6
97612.4,68037.1
97603.7,68080.9
97596.4,68117.4
97595,68124.7
97595,68213.9
97612.4,68301.5
97646.5,68383.9
97696.1,68458.2
97759.2,68521.3
97833.5,68570.9
97915.9,68605
97959.7,68613.7
98003.5,68622.4
98092.7,68622.4
98136.5,68613.7
98180.3,68605
98262.8,68570.9
98337,68521.3
98400.1,68458.2
98449.7,68383.9
98483.8,68301.5
98501.3,68213.9
98501.3,68124.7
98499.8,68117.4
98492.6,68080.9
98483.8,68037.1
98449.7,67954.6
98400.1,67880.4
98337,67817.3
98262.8,67767.7
98180.3,67733.6
98136.5,67724.8
98092.7,67716.1
98003.5,67716.1
Z" /> 
<path style="fill:#000000; fill-opacity:1.0; 
stroke:#000000; stroke-width:0; stroke-opacity:1; 
stroke-linecap:round; stroke-linejoin:round;fill-rule:evenodd;"
d="M 103365,67705.2
103321,67713.9
103239,67748
103165,67797.6
103102,67860.7
103052,67935
103018,68017.4
103014,68037.1
103000,68105
103000,68194.2
103004,68213.9
103018,68281.8
103052,68364.3
103102,68438.5
103165,68501.6
103239,68551.2
103321,68585.3
103365,68594
103409,68602.8
103498,68602.8
103542,68594
103586,68585.3
103668,68551.2
103742,68501.6
103806,68438.5
103855,68364.3
103889,68281.8
103903,68213.9
103907,68194.2
103907,68105
103893,68037.1
103889,68017.4
103855,67935
103806,67860.7
103742,67797.6
103668,67748
103586,67713.9
103542,67705.2
103498,67696.5
103409,67696.5
Z" /> 
<path style="fill:#000000; fill-opacity:1.0; 
stroke:#000000; stroke-width:0; stroke-opacity:1; 
stroke-linecap:round; stroke-linejoin:round;fill-rule:evenodd;"
d="M 99000.5,68602.8
99906.8,68602.8
99906.8,67696.5
99000.5,67696.5
Z" /> 
<path style="fill:#000000; fill-opacity:1.0; 
stroke:#000000; stroke-width:0; stroke-opacity:1; 
stroke-linecap:round; stroke-linejoin:round;fill-rule:evenodd;"
d="M 104787,67792.9
104728,67804.6
104664,67831.3
104605,67870.1
104556,67919.5
104517,67977.6
104490,68042.2
104477,68110.7
104477,68180.6
104490,68249.1
104517,68313.7
104556,68371.8
104605,68421.2
104664,68460
104728,68486.8
104787,68498.5
104797,68500.4
104867,68500.4
104876,68498.5
104935,68486.8
105000,68460
105058,68421.2
105107,68371.8
105146,68313.7
105173,68249.1
105186,68180.6
105186,68110.7
105173,68042.2
105146,67977.6
105107,67919.5
105058,67870.1
105000,67831.3
104935,67804.6
104876,67792.9
104867,67790.9
104797,67790.9
Z" /> 
<path style="fill:#000000; fill-opacity:1.0; 
stroke:#000000; stroke-width:0; stroke-opacity:1; 
stroke-linecap:round; stroke-linejoin:round;fill-rule:evenodd;"
d="M 92048.3,67611.6
92033.1,67616.3
92019.1,67623.8
92006.8,67633.9
91996.7,67646.2
91989.2,67660.2
91984.6,67675.4
91982.8,67693.7
91982.8,68117.4
91984.6,68135.6
91989.2,68150.8
91996.7,68164.9
92006.8,68177.2
92019.1,68187.3
92033.1,68194.8
92048.3,68199.4
92066.6,68201.2
92323,68201.2
92341.2,68199.4
92356.4,68194.8
92370.5,68187.3
92382.8,68177.2
92392.9,68164.9
92400.4,68150.8
92405,68135.6
92406.8,68117.4
92406.8,67693.7
92405,67675.4
92400.4,67660.2
92392.9,67646.2
92382.8,67633.9
92370.5,67623.8
92356.4,67616.3
92341.2,67611.6
92323,67609.8
92066.6,67609.8
Z" /> 
<path style="fill:#000000; fill-opacity:1.0; 
stroke:#000000; stroke-width:0; stroke-opacity:1; 
stroke-linecap:round; stroke-linejoin:round;fill-rule:evenodd;"
d="M 92786.5,67611.6
92771.3,67616.3
92757.3,67623.8
92745,67633.9
92734.9,67646.2
92727.4,67660.2
92722.7,67675.4
92720.9,67693.7
92720.9,68117.4
92722.7,68135.6
92727.4,68150.8
92734.9,68164.9
92745,68177.2
92757.3,68187.3
92771.3,68194.8
92786.5,68199.4
92804.8,68201.2
93061.1,68201.2
93079.4,68199.4
93094.6,68194.8
93108.7,68187.3
93121,68177.2
93131,68164.9
93138.5,68150.8
93143.2,68135.6
93145,68117.4
93145,67693.7
93143.2,67675.4
93138.5,67660.2
93131,67646.2
93121,67633.9
93108.7,67623.8
93094.6,67616.3
93079.4,67611.6
93061.1,67609.8
92804.8,67609.8
Z" /> 
</g> 
</svg>
