<?xml version="1.0" standalone="no"?>
 <!DOCTYPE svg PUBLIC "-//W3C//DTD SVG 1.1//EN" 
 "http://www.w3.org/Graphics/SVG/1.1/DTD/svg11.dtd"> 
<svg xmlns="http://www.w3.org/2000/svg" version="1.1" 
    width="29.7002cm" height="21.0007cm" viewBox="0 0 116930 82680 ">
<title>SVG Picture created as hardware-F_Cu.svg date 2020/04/15 19:30:32 </title>
  <desc>Picture generated by PCBNEW </desc>
<g style="fill:#000000; fill-opacity:1;stroke:#000000; stroke-opacity:1;
stroke-linecap:round; stroke-linejoin:round; "
 transform="translate(0 0) scale(1 1)">
</g>
<g style="fill:#000000; fill-opacity:0.0; 
stroke:#000000; stroke-width:-0.000393701; stroke-opacity:1; 
stroke-linecap:round; stroke-linejoin:round;">
</g>
<g style="fill:#000000; fill-opacity:0.0; 
stroke:#000000; stroke-width:196.85; stroke-opacity:1; 
stroke-linecap:round; stroke-linejoin:round;">
<g transform="rotate(-270 106816 70259.8)">
<text x="106816" y="70653.5"
textLength="6336.71" font-size="1049.87" lengthAdjust="spacingAndGlyphs"
text-anchor="middle" opacity="0">snoiry.com</text>
</g>
<path d="M107134 67241
L107172 67316
L107172 67466
L107134 67541
L107059 67578
L107022 67578
L106947 67541
L106909 67466
L106909 67353
L106872 67278
L106797 67241
L106759 67241
L106684 67278
L106647 67353
L106647 67466
L106684 67541
" />
<path d="M106647 67916
L107172 67916
" />
<path d="M106722 67916
L106684 67953
L106647 68028
L106647 68141
L106684 68216
L106759 68253
L107172 68253
" />
<path d="M107172 68741
L107134 68666
L107097 68628
L107022 68591
L106797 68591
L106722 68628
L106684 68666
L106647 68741
L106647 68853
L106684 68928
L106722 68966
L106797 69003
L107022 69003
L107097 68966
L107134 68928
L107172 68853
L107172 68741
" />
<path d="M107172 69341
L106647 69341
" />
<path d="M106384 69341
L106422 69303
L106459 69341
L106422 69378
L106384 69341
L106459 69341
" />
<path d="M107172 69716
L106647 69716
" />
<path d="M106797 69716
L106722 69753
L106684 69791
L106647 69866
L106647 69941
" />
<path d="M106647 70128
L107172 70316
" />
<path d="M106647 70503
L107172 70316
L107359 70241
L107397 70203
L107434 70128
" />
<path d="M107097 70803
L107134 70841
L107172 70803
L107134 70766
L107097 70803
L107172 70803
" />
<path d="M107134 71515
L107172 71440
L107172 71290
L107134 71215
L107097 71178
L107022 71140
L106797 71140
L106722 71178
L106684 71215
L106647 71290
L106647 71440
L106684 71515
" />
<path d="M107172 71965
L107134 71890
L107097 71853
L107022 71815
L106797 71815
L106722 71853
L106684 71890
L106647 71965
L106647 72078
L106684 72153
L106722 72190
L106797 72228
L107022 72228
L107097 72190
L107134 72153
L107172 72078
L107172 71965
" />
<path d="M107172 72565
L106647 72565
" />
<path d="M106722 72565
L106684 72603
L106647 72678
L106647 72790
L106684 72865
L106759 72903
L107172 72903
" />
<path d="M106759 72903
L106684 72940
L106647 73015
L106647 73128
L106684 73203
L106759 73240
L107172 73240
" />
<g >
</g>
<g style="fill:#000000; fill-opacity:0.0; 
stroke:#000000; stroke-width:0; stroke-opacity:1; 
stroke-linecap:round; stroke-linejoin:round;">
</g>
<g style="fill:#000000; fill-opacity:1.0; 
stroke:#000000; stroke-width:0; stroke-opacity:1; 
stroke-linecap:round; stroke-linejoin:round;">
<path style="fill:#000000; fill-opacity:1.0; 
stroke:#000000; stroke-width:0; stroke-opacity:1; 
stroke-linecap:round; stroke-linejoin:round;fill-rule:evenodd;"
d="M 101938,71835.1
101929,71836.5
101919,71838.8
101911,71842
101902,71846
101894,71850.8
101886,71856.4
101879,71862.8
101873,71869.7
101867,71877.3
101863,71885.4
101859,71893.9
101855,71902.8
101853,71911.9
101852,71921.2
101851,71930.6
101851,72122.5
101852,72131.9
101853,72141.3
101855,72150.4
101859,72159.3
101863,72167.8
101867,72175.9
101873,72183.4
101879,72190.4
101886,72196.7
101894,72202.3
101902,72207.2
101911,72211.2
101919,72214.4
101929,72216.7
101938,72218
101947,72218.5
102306,72218.5
102316,72218
102325,72216.7
102334,72214.4
102343,72211.2
102352,72207.2
102360,72202.3
102367,72196.7
102374,72190.4
102381,72183.4
102386,72175.9
102391,72167.8
102395,72159.3
102398,72150.4
102401,72141.3
102402,72131.9
102402,72122.5
102402,71930.6
102402,71921.2
102401,71911.9
102398,71902.8
102395,71893.9
102391,71885.4
102386,71877.3
102381,71869.7
102374,71862.8
102367,71856.4
102360,71850.8
102352,71846
102343,71842
102334,71838.8
102325,71836.5
102316,71835.1
102306,71834.6
101947,71834.6
Z" /> 
<path style="fill:#000000; fill-opacity:1.0; 
stroke:#000000; stroke-width:0; stroke-opacity:1; 
stroke-linecap:round; stroke-linejoin:round;fill-rule:evenodd;"
d="M 101938,71096.9
101929,71098.3
101919,71100.6
101911,71103.8
101902,71107.8
101894,71112.6
101886,71118.2
101879,71124.6
101873,71131.5
101867,71139.1
101863,71147.2
101859,71155.7
101855,71164.6
101853,71173.7
101852,71183
101851,71192.4
101851,71384.4
101852,71393.8
101853,71403.1
101855,71412.2
101859,71421.1
101863,71429.6
101867,71437.7
101873,71445.2
101879,71452.2
101886,71458.5
101894,71464.1
101902,71469
101911,71473
101919,71476.2
101929,71478.5
101938,71479.9
101947,71480.3
102306,71480.3
102316,71479.9
102325,71478.5
102334,71476.2
102343,71473
102352,71469
102360,71464.1
102367,71458.5
102374,71452.2
102381,71445.2
102386,71437.7
102391,71429.6
102395,71421.1
102398,71412.2
102401,71403.1
102402,71393.8
102402,71384.4
102402,71192.4
102402,71183
102401,71173.7
102398,71164.6
102395,71155.7
102391,71147.2
102386,71139.1
102381,71131.5
102374,71124.6
102367,71118.2
102360,71112.6
102352,71107.8
102343,71103.8
102334,71100.6
102325,71098.3
102316,71096.9
102306,71096.5
101947,71096.5
Z" /> 
</g>
<g >
</g>
<g style="fill:#000000; fill-opacity:1.0; 
stroke:#000000; stroke-width:0; stroke-opacity:1; 
stroke-linecap:round; stroke-linejoin:round;">
<path style="fill:#000000; fill-opacity:1.0; 
stroke:#000000; stroke-width:0; stroke-opacity:1; 
stroke-linecap:round; stroke-linejoin:round;fill-rule:evenodd;"
d="M 101182,71096.9
101173,71098.3
101163,71100.6
101155,71103.8
101146,71107.8
101138,71112.6
101130,71118.2
101123,71124.6
101117,71131.5
101112,71139.1
101107,71147.2
101103,71155.7
101099,71164.6
101097,71173.7
101096,71183
101095,71192.4
101095,71384.4
101096,71393.8
101097,71403.1
101099,71412.2
101103,71421.1
101107,71429.6
101112,71437.7
101117,71445.2
101123,71452.2
101130,71458.5
101138,71464.1
101146,71469
101155,71473
101163,71476.2
101173,71478.5
101182,71479.9
101191,71480.3
101551,71480.3
101560,71479.9
101569,71478.5
101578,71476.2
101587,71473
101596,71469
101604,71464.1
101611,71458.5
101618,71452.2
101625,71445.2
101630,71437.7
101635,71429.6
101639,71421.1
101642,71412.2
101645,71403.1
101646,71393.8
101647,71384.4
101647,71192.4
101646,71183
101645,71173.7
101642,71164.6
101639,71155.7
101635,71147.2
101630,71139.1
101625,71131.5
101618,71124.6
101611,71118.2
101604,71112.6
101596,71107.8
101587,71103.8
101578,71100.6
101569,71098.3
101560,71096.9
101551,71096.5
101191,71096.5
Z" /> 
<path style="fill:#000000; fill-opacity:1.0; 
stroke:#000000; stroke-width:0; stroke-opacity:1; 
stroke-linecap:round; stroke-linejoin:round;fill-rule:evenodd;"
d="M 101182,71835.1
101173,71836.5
101163,71838.8
101155,71842
101146,71846
101138,71850.8
101130,71856.4
101123,71862.8
101117,71869.7
101112,71877.3
101107,71885.4
101103,71893.9
101099,71902.8
101097,71911.9
101096,71921.2
101095,71930.6
101095,72122.5
101096,72131.9
101097,72141.3
101099,72150.4
101103,72159.3
101107,72167.8
101112,72175.9
101117,72183.4
101123,72190.4
101130,72196.7
101138,72202.3
101146,72207.2
101155,72211.2
101163,72214.4
101173,72216.7
101182,72218
101191,72218.5
101551,72218.5
101560,72218
101569,72216.7
101578,72214.4
101587,72211.2
101596,72207.2
101604,72202.3
101611,72196.7
101618,72190.4
101625,72183.4
101630,72175.9
101635,72167.8
101639,72159.3
101642,72150.4
101645,72141.3
101646,72131.9
101647,72122.5
101647,71930.6
101646,71921.2
101645,71911.9
101642,71902.8
101639,71893.9
101635,71885.4
101630,71877.3
101625,71869.7
101618,71862.8
101611,71856.4
101604,71850.8
101596,71846
101587,71842
101578,71838.8
101569,71836.5
101560,71835.1
101551,71834.6
101191,71834.6
Z" /> 
</g>
<g >
</g>
<g style="fill:#000000; fill-opacity:1.0; 
stroke:#000000; stroke-width:0; stroke-opacity:1; 
stroke-linecap:round; stroke-linejoin:round;">
<circle cx="103111" cy="72653.5" r="354.331" /> 
</g>
<g style="fill:#000000; fill-opacity:1.0; 
stroke:#000000; stroke-width:39.3701; stroke-opacity:1; 
stroke-linecap:round; stroke-linejoin:round;">
</g>
<g style="fill:#000000; fill-opacity:1.0; 
stroke:#000000; stroke-width:0; stroke-opacity:1; 
stroke-linecap:round; stroke-linejoin:round;">
<path style="fill:#000000; fill-opacity:1.0; 
stroke:#000000; stroke-width:0; stroke-opacity:1; 
stroke-linecap:round; stroke-linejoin:round;fill-rule:evenodd;"
d="M 103465,71299.2
102757,71299.2
102757,72007.9
103465,72007.9
Z" /> 
</g>
<g >
</g>
<g style="fill:#000000; fill-opacity:1.0; 
stroke:#000000; stroke-width:0; stroke-opacity:1; 
stroke-linecap:round; stroke-linejoin:round;">
<circle cx="100434" cy="71645.7" r="354.331" /> 
</g>
<g style="fill:#000000; fill-opacity:1.0; 
stroke:#000000; stroke-width:39.3701; stroke-opacity:1; 
stroke-linecap:round; stroke-linejoin:round;">
</g>
<g style="fill:#000000; fill-opacity:1.0; 
stroke:#000000; stroke-width:0; stroke-opacity:1; 
stroke-linecap:round; stroke-linejoin:round;">
<path style="fill:#000000; fill-opacity:1.0; 
stroke:#000000; stroke-width:0; stroke-opacity:1; 
stroke-linecap:round; stroke-linejoin:round;fill-rule:evenodd;"
d="M 100080,73000
100788,73000
100788,72291.3
100080,72291.3
Z" /> 
</g>
<g >
</g>
<g style="fill:#000000; fill-opacity:1.0; 
stroke:#000000; stroke-width:0; stroke-opacity:1; 
stroke-linecap:round; stroke-linejoin:round;">
<path style="fill:#000000; fill-opacity:1.0; 
stroke:#000000; stroke-width:0; stroke-opacity:1; 
stroke-linecap:round; stroke-linejoin:round;fill-rule:evenodd;"
d="M 95563.9,71968.5
95563.9,71299.2
94894.6,71299.2
94894.6,71968.5
Z" /> 
</g>
<g >
</g>
<g style="fill:#000000; fill-opacity:1.0; 
stroke:#000000; stroke-width:0; stroke-opacity:1; 
stroke-linecap:round; stroke-linejoin:round;">
<path style="fill:#000000; fill-opacity:1.0; 
stroke:#000000; stroke-width:0; stroke-opacity:1; 
stroke-linecap:round; stroke-linejoin:round;fill-rule:evenodd;"
d="M 102422,69122
101792,69122
101792,69752
102422,69752
Z" /> 
<circle cx="102107" cy="70421.3" r="314.961" /> 
</g>
<g style="fill:#000000; fill-opacity:1.0; 
stroke:#000000; stroke-width:39.3701; stroke-opacity:1; 
stroke-linecap:round; stroke-linejoin:round;">
</g>
<g >
</g>
<g style="fill:#000000; fill-opacity:1.0; 
stroke:#000000; stroke-width:39.3701; stroke-opacity:1; 
stroke-linecap:round; stroke-linejoin:round;">
</g>
<g style="fill:#000000; fill-opacity:1.0; 
stroke:#000000; stroke-width:0; stroke-opacity:1; 
stroke-linecap:round; stroke-linejoin:round;">
<path style="fill:#000000; fill-opacity:1.0; 
stroke:#000000; stroke-width:0; stroke-opacity:1; 
stroke-linecap:round; stroke-linejoin:round;fill-rule:evenodd;"
d="M 96745.2,69368.6
96735.6,69370
96726.2,69372.3
96717.1,69375.6
96708.4,69379.7
96700.1,69384.7
96692.4,69390.5
96685.2,69396.9
96678.7,69404.1
96673,69411.9
96668,69420.1
96663.9,69428.9
96660.6,69438
96658.3,69447.3
96656.9,69456.9
96656.4,69466.5
96656.4,69761.8
96656.9,69771.5
96658.3,69781
96660.6,69790.4
96663.9,69799.5
96668,69808.2
96673,69816.5
96678.7,69824.3
96685.2,69831.4
96692.4,69837.9
96700.1,69843.6
96708.4,69848.6
96717.1,69852.7
96726.2,69856
96735.6,69858.3
96745.2,69859.8
96754.8,69860.2
97246.9,69860.2
97256.6,69859.8
97266.1,69858.3
97275.5,69856
97284.6,69852.7
97293.3,69848.6
97301.6,69843.6
97309.4,69837.9
97316.5,69831.4
97323,69824.3
97328.8,69816.5
97333.7,69808.2
97337.9,69799.5
97341.1,69790.4
97343.5,69781
97344.9,69771.5
97345.4,69761.8
97345.4,69466.5
97344.9,69456.9
97343.5,69447.3
97341.1,69438
97337.9,69428.9
97333.7,69420.1
97328.8,69411.9
97323,69404.1
97316.5,69396.9
97309.4,69390.5
97301.6,69384.7
97293.3,69379.7
97284.6,69375.6
97275.5,69372.3
97266.1,69370
97256.6,69368.6
97246.9,69368.1
96754.8,69368.1
Z" /> 
<path style="fill:#000000; fill-opacity:1.0; 
stroke:#000000; stroke-width:0; stroke-opacity:1; 
stroke-linecap:round; stroke-linejoin:round;fill-rule:evenodd;"
d="M 96745.2,70470.9
96735.6,70472.4
96726.2,70474.7
96717.1,70478
96708.4,70482.1
96700.1,70487.1
96692.4,70492.8
96685.2,70499.3
96678.7,70506.5
96673,70514.2
96668,70522.5
96663.9,70531.2
96660.6,70540.3
96658.3,70549.7
96656.9,70559.3
96656.4,70568.9
96656.4,70864.2
96656.9,70873.8
96658.3,70883.4
96660.6,70892.7
96663.9,70901.8
96668,70910.6
96673,70918.9
96678.7,70926.6
96685.2,70933.8
96692.4,70940.3
96700.1,70946
96708.4,70951
96717.1,70955.1
96726.2,70958.4
96735.6,70960.7
96745.2,70962.1
96754.8,70962.6
97246.9,70962.6
97256.6,70962.1
97266.1,70960.7
97275.5,70958.4
97284.6,70955.1
97293.3,70951
97301.6,70946
97309.4,70940.3
97316.5,70933.8
97323,70926.6
97328.8,70918.9
97333.7,70910.6
97337.9,70901.8
97341.1,70892.7
97343.5,70883.4
97344.9,70873.8
97345.4,70864.2
97345.4,70568.9
97344.9,70559.3
97343.5,70549.7
97341.1,70540.3
97337.9,70531.2
97333.7,70522.5
97328.8,70514.2
97323,70506.5
97316.5,70499.3
97309.4,70492.8
97301.6,70487.1
97293.3,70482.1
97284.6,70478
97275.5,70474.7
97266.1,70472.4
97256.6,70470.9
97246.9,70470.5
96754.8,70470.5
Z" /> 
</g>
<g >
</g>
<g style="fill:#000000; fill-opacity:1.0; 
stroke:#000000; stroke-width:0; stroke-opacity:1; 
stroke-linecap:round; stroke-linejoin:round;">
<path style="fill:#000000; fill-opacity:1.0; 
stroke:#000000; stroke-width:0; stroke-opacity:1; 
stroke-linecap:round; stroke-linejoin:round;fill-rule:evenodd;"
d="M 97820,70478.8
97810.4,70480.2
97801,70482.6
97791.9,70485.8
97783.2,70490
97774.9,70494.9
97767.2,70500.7
97760,70507.2
97753.5,70514.3
97747.8,70522.1
97742.8,70530.4
97738.7,70539.1
97735.4,70548.2
97733.1,70557.6
97731.7,70567.1
97731.2,70576.8
97731.2,70872
97731.7,70881.7
97733.1,70891.2
97735.4,70900.6
97738.7,70909.7
97742.8,70918.4
97747.8,70926.7
97753.5,70934.5
97760,70941.6
97767.2,70948.1
97774.9,70953.9
97783.2,70958.9
97791.9,70963
97801,70966.2
97810.4,70968.6
97820,70970
97829.6,70970.5
98321.7,70970.5
98331.4,70970
98340.9,70968.6
98350.3,70966.2
98359.4,70963
98368.1,70958.9
98376.4,70953.9
98384.2,70948.1
98391.3,70941.6
98397.8,70934.5
98403.6,70926.7
98408.5,70918.4
98412.7,70909.7
98415.9,70900.6
98418.3,70891.2
98419.7,70881.7
98420.2,70872
98420.2,70576.8
98419.7,70567.1
98418.3,70557.6
98415.9,70548.2
98412.7,70539.1
98408.5,70530.4
98403.6,70522.1
98397.8,70514.3
98391.3,70507.2
98384.2,70500.7
98376.4,70494.9
98368.1,70490
98359.4,70485.8
98350.3,70482.6
98340.9,70480.2
98331.4,70478.8
98321.7,70478.3
97829.6,70478.3
Z" /> 
<path style="fill:#000000; fill-opacity:1.0; 
stroke:#000000; stroke-width:0; stroke-opacity:1; 
stroke-linecap:round; stroke-linejoin:round;fill-rule:evenodd;"
d="M 97820,69376.5
97810.4,69377.9
97801,69380.2
97791.9,69383.5
97783.2,69387.6
97774.9,69392.6
97767.2,69398.3
97760,69404.8
97753.5,69412
97747.8,69419.7
97742.8,69428
97738.7,69436.7
97735.4,69445.8
97733.1,69455.2
97731.7,69464.8
97731.2,69474.4
97731.2,69769.7
97731.7,69779.3
97733.1,69788.9
97735.4,69798.3
97738.7,69807.4
97742.8,69816.1
97747.8,69824.4
97753.5,69832.1
97760,69839.3
97767.2,69845.8
97774.9,69851.5
97783.2,69856.5
97791.9,69860.6
97801,69863.9
97810.4,69866.2
97820,69867.6
97829.6,69868.1
98321.7,69868.1
98331.4,69867.6
98340.9,69866.2
98350.3,69863.9
98359.4,69860.6
98368.1,69856.5
98376.4,69851.5
98384.2,69845.8
98391.3,69839.3
98397.8,69832.1
98403.6,69824.4
98408.5,69816.1
98412.7,69807.4
98415.9,69798.3
98418.3,69788.9
98419.7,69779.3
98420.2,69769.7
98420.2,69474.4
98419.7,69464.8
98418.3,69455.2
98415.9,69445.8
98412.7,69436.7
98408.5,69428
98403.6,69419.7
98397.8,69412
98391.3,69404.8
98384.2,69398.3
98376.4,69392.6
98368.1,69387.6
98359.4,69383.5
98350.3,69380.2
98340.9,69377.9
98331.4,69376.5
98321.7,69376
97829.6,69376
Z" /> 
</g>
<g >
</g>
<g style="fill:#000000; fill-opacity:1.0; 
stroke:#000000; stroke-width:0; stroke-opacity:1; 
stroke-linecap:round; stroke-linejoin:round;">
<path style="fill:#000000; fill-opacity:1.0; 
stroke:#000000; stroke-width:0; stroke-opacity:1; 
stroke-linecap:round; stroke-linejoin:round;fill-rule:evenodd;"
d="M 99020.6,67716.5
99020.6,68582.7
99886.7,68582.7
99886.7,67716.5
Z" /> 
</g>
<g style="fill:#000000; fill-opacity:1.0; 
stroke:#000000; stroke-width:866.142; stroke-opacity:1; 
stroke-linecap:round; stroke-linejoin:round;">
</g>
<g style="fill:#000000; fill-opacity:0.0; 
stroke:#000000; stroke-width:866.142; stroke-opacity:1; 
stroke-linecap:round; stroke-linejoin:round;">
<path d="M103453 68149
L103453 68149
" />
</g>
<g >
</g>
<g style="fill:#000000; fill-opacity:0.0; 
stroke:#000000; stroke-width:866.142; stroke-opacity:1; 
stroke-linecap:round; stroke-linejoin:round;">
<path d="M98048 68169
L98048 68169
" />
</g>
<g style="fill:#000000; fill-opacity:0.0; 
stroke:#000000; stroke-width:0; stroke-opacity:1; 
stroke-linecap:round; stroke-linejoin:round;">
</g>
<g style="fill:#000000; fill-opacity:1.0; 
stroke:#000000; stroke-width:0; stroke-opacity:1; 
stroke-linecap:round; stroke-linejoin:round;">
<path style="fill:#000000; fill-opacity:1.0; 
stroke:#000000; stroke-width:0; stroke-opacity:1; 
stroke-linecap:round; stroke-linejoin:round;fill-rule:evenodd;"
d="M 93615,67736.2
93615,68602.4
94481.2,68602.4
94481.2,67736.2
Z" /> 
</g>
<g >
</g>
<g style="fill:#000000; fill-opacity:1.0; 
stroke:#000000; stroke-width:0; stroke-opacity:1; 
stroke-linecap:round; stroke-linejoin:round;">
<path style="fill:#000000; fill-opacity:1.0; 
stroke:#000000; stroke-width:0; stroke-opacity:1; 
stroke-linecap:round; stroke-linejoin:round;fill-rule:evenodd;"
d="M 105166,72480.3
105166,71811
104497,71811
104497,72480.3
Z" /> 
</g>
<g style="fill:#000000; fill-opacity:1.0; 
stroke:#000000; stroke-width:669.291; stroke-opacity:1; 
stroke-linecap:round; stroke-linejoin:round;">
</g>
<g style="fill:#000000; fill-opacity:0.0; 
stroke:#000000; stroke-width:669.291; stroke-opacity:1; 
stroke-linecap:round; stroke-linejoin:round;">
<path d="M104831 71145
L104831 71145
" />
<path d="M104831 70145
L104831 70145
" />
<path d="M104831 69145
L104831 69145
" />
<path d="M104831 68145
L104831 68145
" />
</g>
<g >
</g>
<g style="fill:#000000; fill-opacity:0.0; 
stroke:#000000; stroke-width:669.291; stroke-opacity:1; 
stroke-linecap:round; stroke-linejoin:round;">
<path d="M92193 71984
L92193 71984
" />
<path d="M92193 70984
L92193 70984
" />
<path d="M92193 69984
L92193 69984
" />
</g>
<g style="fill:#000000; fill-opacity:0.0; 
stroke:#000000; stroke-width:0; stroke-opacity:1; 
stroke-linecap:round; stroke-linejoin:round;">
</g>
<g style="fill:#000000; fill-opacity:1.0; 
stroke:#000000; stroke-width:0; stroke-opacity:1; 
stroke-linecap:round; stroke-linejoin:round;">
<path style="fill:#000000; fill-opacity:1.0; 
stroke:#000000; stroke-width:0; stroke-opacity:1; 
stroke-linecap:round; stroke-linejoin:round;fill-rule:evenodd;"
d="M 91859.1,68649.6
91859.1,69318.9
92528.4,69318.9
92528.4,68649.6
Z" /> 
</g>
<g >
</g>
<g style="fill:#000000; fill-opacity:1.0; 
stroke:#000000; stroke-width:0; stroke-opacity:1; 
stroke-linecap:round; stroke-linejoin:round;">
<path style="fill:#000000; fill-opacity:1.0; 
stroke:#000000; stroke-width:0; stroke-opacity:1; 
stroke-linecap:round; stroke-linejoin:round;fill-rule:evenodd;"
d="M 93898.5,70234.3
93898.5,70490.2
94315.8,70490.2
94315.8,70234.3
Z" /> 
<path style="fill:#000000; fill-opacity:1.0; 
stroke:#000000; stroke-width:0; stroke-opacity:1; 
stroke-linecap:round; stroke-linejoin:round;fill-rule:evenodd;"
d="M 93898.5,69860.2
93898.5,70116.1
94315.8,70116.1
94315.8,69860.2
Z" /> 
<path style="fill:#000000; fill-opacity:1.0; 
stroke:#000000; stroke-width:0; stroke-opacity:1; 
stroke-linecap:round; stroke-linejoin:round;fill-rule:evenodd;"
d="M 93898.5,69486.2
93898.5,69742.1
94315.8,69742.1
94315.8,69486.2
Z" /> 
<path style="fill:#000000; fill-opacity:1.0; 
stroke:#000000; stroke-width:0; stroke-opacity:1; 
stroke-linecap:round; stroke-linejoin:round;fill-rule:evenodd;"
d="M 94764.6,69486.2
94764.6,69742.1
95182,69742.1
95182,69486.2
Z" /> 
<path style="fill:#000000; fill-opacity:1.0; 
stroke:#000000; stroke-width:0; stroke-opacity:1; 
stroke-linecap:round; stroke-linejoin:round;fill-rule:evenodd;"
d="M 94764.6,70234.3
94764.6,70490.2
95182,70490.2
95182,70234.3
Z" /> 
<path style="fill:#000000; fill-opacity:1.0; 
stroke:#000000; stroke-width:0; stroke-opacity:1; 
stroke-linecap:round; stroke-linejoin:round;fill-rule:evenodd;"
d="M 94764.6,69860.2
94764.6,70116.1
95182,70116.1
95182,69860.2
Z" /> 
</g>
<g >
</g>
<g style="fill:#000000; fill-opacity:1.0; 
stroke:#000000; stroke-width:0; stroke-opacity:1; 
stroke-linecap:round; stroke-linejoin:round;">
<path style="fill:#000000; fill-opacity:1.0; 
stroke:#000000; stroke-width:0; stroke-opacity:1; 
stroke-linecap:round; stroke-linejoin:round;fill-rule:evenodd;"
d="M 92827.6,67630.4
92818.3,67631.8
92809.1,67634.1
92800.3,67637.2
92791.8,67641.3
92783.7,67646.1
92776.1,67651.7
92769.1,67658
92762.8,67665
92757.2,67672.6
92752.4,67680.6
92748.3,67689.2
92745.2,67698
92742.9,67707.2
92741.5,67716.5
92741,67725.9
92741,68085.1
92741.5,68094.5
92742.9,68103.9
92745.2,68113
92748.3,68121.9
92752.4,68130.4
92757.2,68138.5
92762.8,68146
92769.1,68153
92776.1,68159.3
92783.7,68164.9
92791.8,68169.8
92800.3,68173.8
92809.1,68177
92818.3,68179.3
92827.6,68180.6
92837,68181.1
93028.9,68181.1
93038.3,68180.6
93047.6,68179.3
93056.8,68177
93065.6,68173.8
93074.2,68169.8
93082.2,68164.9
93089.8,68159.3
93096.8,68153
93103.1,68146
93108.7,68138.5
93113.6,68130.4
93117.6,68121.9
93120.7,68113
93123,68103.9
93124.4,68094.5
93124.9,68085.1
93124.9,67725.9
93124.4,67716.5
93123,67707.2
93120.7,67698
93117.6,67689.2
93113.6,67680.6
93108.7,67672.6
93103.1,67665
93096.8,67658
93089.8,67651.7
93082.2,67646.1
93074.2,67641.3
93065.6,67637.2
93056.8,67634.1
93047.6,67631.8
93038.3,67630.4
93028.9,67629.9
92837,67629.9
Z" /> 
<path style="fill:#000000; fill-opacity:1.0; 
stroke:#000000; stroke-width:0; stroke-opacity:1; 
stroke-linecap:round; stroke-linejoin:round;fill-rule:evenodd;"
d="M 92089.4,67630.4
92080.1,67631.8
92070.9,67634.1
92062.1,67637.2
92053.6,67641.3
92045.5,67646.1
92037.9,67651.7
92030.9,67658
92024.6,67665
92019,67672.6
92014.2,67680.6
92010.1,67689.2
92007,67698
92004.7,67707.2
92003.3,67716.5
92002.8,67725.9
92002.8,68085.1
92003.3,68094.5
92004.7,68103.9
92007,68113
92010.1,68121.9
92014.2,68130.4
92019,68138.5
92024.6,68146
92030.9,68153
92037.9,68159.3
92045.5,68164.9
92053.6,68169.8
92062.1,68173.8
92070.9,68177
92080.1,68179.3
92089.4,68180.6
92098.8,68181.1
92290.7,68181.1
92300.1,68180.6
92309.4,68179.3
92318.6,68177
92327.5,68173.8
92336,68169.8
92344,68164.9
92351.6,68159.3
92358.6,68153
92364.9,68146
92370.5,68138.5
92375.4,68130.4
92379.4,68121.9
92382.6,68113
92384.8,68103.9
92386.2,68094.5
92386.7,68085.1
92386.7,67725.9
92386.2,67716.5
92384.8,67707.2
92382.6,67698
92379.4,67689.2
92375.4,67680.6
92370.5,67672.6
92364.9,67665
92358.6,67658
92351.6,67651.7
92344,67646.1
92336,67641.3
92327.5,67637.2
92318.6,67634.1
92309.4,67631.8
92300.1,67630.4
92290.7,67629.9
92098.8,67629.9
Z" /> 
</g>
<g >
</g>
<g style="fill:#000000; fill-opacity:1.0; 
stroke:#000000; stroke-width:0; stroke-opacity:1; 
stroke-linecap:round; stroke-linejoin:round;">
<path style="fill:#000000; fill-opacity:1.0; 
stroke:#000000; stroke-width:0; stroke-opacity:1; 
stroke-linecap:round; stroke-linejoin:round;fill-rule:evenodd;"
d="M 93178.2,72892.2
93168.7,72893.6
93159.3,72896
93150.2,72899.2
93141.5,72903.4
93133.2,72908.3
93125.4,72914.1
93118.3,72920.6
93111.8,72927.7
93106,72935.5
93101.1,72943.8
93096.9,72952.5
93093.7,72961.6
93091.3,72971
93089.9,72980.5
93089.4,72990.2
93089.4,73285.4
93089.9,73295.1
93091.3,73304.6
93093.7,73314
93096.9,73323.1
93101.1,73331.8
93106,73340.1
93111.8,73347.9
93118.3,73355
93125.4,73361.5
93133.2,73367.3
93141.5,73372.2
93150.2,73376.4
93159.3,73379.6
93168.7,73382
93178.2,73383.4
93187.9,73383.9
93680,73383.9
93689.6,73383.4
93699.2,73382
93708.6,73379.6
93717.7,73376.4
93726.4,73372.2
93734.7,73367.3
93742.4,73361.5
93749.6,73355
93756.1,73347.9
93761.8,73340.1
93766.8,73331.8
93770.9,73323.1
93774.2,73314
93776.5,73304.6
93778,73295.1
93778.4,73285.4
93778.4,72990.2
93778,72980.5
93776.5,72971
93774.2,72961.6
93770.9,72952.5
93766.8,72943.8
93761.8,72935.5
93756.1,72927.7
93749.6,72920.6
93742.4,72914.1
93734.7,72908.3
93726.4,72903.4
93717.7,72899.2
93708.6,72896
93699.2,72893.6
93689.6,72892.2
93680,72891.7
93187.9,72891.7
Z" /> 
<path style="fill:#000000; fill-opacity:1.0; 
stroke:#000000; stroke-width:0; stroke-opacity:1; 
stroke-linecap:round; stroke-linejoin:round;fill-rule:evenodd;"
d="M 93178.2,71789.8
93168.7,71791.3
93159.3,71793.6
93150.2,71796.9
93141.5,71801
93133.2,71806
93125.4,71811.7
93118.3,71818.2
93111.8,71825.4
93106,71833.1
93101.1,71841.4
93096.9,71850.1
93093.7,71859.2
93091.3,71868.6
93089.9,71878.1
93089.4,71887.8
93089.4,72183.1
93089.9,72192.7
93091.3,72202.3
93093.7,72211.6
93096.9,72220.7
93101.1,72229.5
93106,72237.8
93111.8,72245.5
93118.3,72252.7
93125.4,72259.2
93133.2,72264.9
93141.5,72269.9
93150.2,72274
93159.3,72277.3
93168.7,72279.6
93178.2,72281
93187.9,72281.5
93680,72281.5
93689.6,72281
93699.2,72279.6
93708.6,72277.3
93717.7,72274
93726.4,72269.9
93734.7,72264.9
93742.4,72259.2
93749.6,72252.7
93756.1,72245.5
93761.8,72237.8
93766.8,72229.5
93770.9,72220.7
93774.2,72211.6
93776.5,72202.3
93778,72192.7
93778.4,72183.1
93778.4,71887.8
93778,71878.1
93776.5,71868.6
93774.2,71859.2
93770.9,71850.1
93766.8,71841.4
93761.8,71833.1
93756.1,71825.4
93749.6,71818.2
93742.4,71811.7
93734.7,71806
93726.4,71801
93717.7,71796.9
93708.6,71793.6
93699.2,71791.3
93689.6,71789.8
93680,71789.4
93187.9,71789.4
Z" /> 
</g>
<g >
</g>
<g style="fill:#000000; fill-opacity:1.0; 
stroke:#000000; stroke-width:0; stroke-opacity:1; 
stroke-linecap:round; stroke-linejoin:round;">
<path style="fill:#000000; fill-opacity:1.0; 
stroke:#000000; stroke-width:0; stroke-opacity:1; 
stroke-linecap:round; stroke-linejoin:round;fill-rule:evenodd;"
d="M 99794.2,70767.7
100050,70767.7
100050,70350.4
99794.2,70350.4
Z" /> 
<path style="fill:#000000; fill-opacity:1.0; 
stroke:#000000; stroke-width:0; stroke-opacity:1; 
stroke-linecap:round; stroke-linejoin:round;fill-rule:evenodd;"
d="M 99420.2,70767.7
99676.1,70767.7
99676.1,70350.4
99420.2,70350.4
Z" /> 
<path style="fill:#000000; fill-opacity:1.0; 
stroke:#000000; stroke-width:0; stroke-opacity:1; 
stroke-linecap:round; stroke-linejoin:round;fill-rule:evenodd;"
d="M 99046.1,70767.7
99302,70767.7
99302,70350.4
99046.1,70350.4
Z" /> 
<path style="fill:#000000; fill-opacity:1.0; 
stroke:#000000; stroke-width:0; stroke-opacity:1; 
stroke-linecap:round; stroke-linejoin:round;fill-rule:evenodd;"
d="M 99046.1,69901.6
99302,69901.6
99302,69484.3
99046.1,69484.3
Z" /> 
<path style="fill:#000000; fill-opacity:1.0; 
stroke:#000000; stroke-width:0; stroke-opacity:1; 
stroke-linecap:round; stroke-linejoin:round;fill-rule:evenodd;"
d="M 99794.2,69901.6
100050,69901.6
100050,69484.3
99794.2,69484.3
Z" /> 
</g>
<g >
</g>
<g style="fill:#000000; fill-opacity:1.0; 
stroke:#000000; stroke-width:0; stroke-opacity:1; 
stroke-linecap:round; stroke-linejoin:round;">
<circle cx="99548.1" cy="72771.7" r="236.22" /> 
</g>
<g style="fill:#000000; fill-opacity:1.0; 
stroke:#000000; stroke-width:39.3701; stroke-opacity:1; 
stroke-linecap:round; stroke-linejoin:round;">
</g>
<g style="fill:#000000; fill-opacity:1.0; 
stroke:#000000; stroke-width:0; stroke-opacity:1; 
stroke-linecap:round; stroke-linejoin:round;">
<circle cx="99548.1" cy="71141.7" r="236.22" /> 
</g>
<g style="fill:#000000; fill-opacity:1.0; 
stroke:#000000; stroke-width:39.3701; stroke-opacity:1; 
stroke-linecap:round; stroke-linejoin:round;">
</g>
<g style="fill:#000000; fill-opacity:1.0; 
stroke:#000000; stroke-width:0; stroke-opacity:1; 
stroke-linecap:round; stroke-linejoin:round;">
<circle cx="96008.7" cy="69039.4" r="236.22" /> 
</g>
<g style="fill:#000000; fill-opacity:1.0; 
stroke:#000000; stroke-width:39.3701; stroke-opacity:1; 
stroke-linecap:round; stroke-linejoin:round;">
</g>
<g style="fill:#000000; fill-opacity:1.0; 
stroke:#000000; stroke-width:0; stroke-opacity:1; 
stroke-linecap:round; stroke-linejoin:round;">
<circle cx="98607.2" cy="71629.9" r="236.22" /> 
</g>
<g style="fill:#000000; fill-opacity:1.0; 
stroke:#000000; stroke-width:39.3701; stroke-opacity:1; 
stroke-linecap:round; stroke-linejoin:round;">
</g>
<g >
</g>
<g style="fill:#000000; fill-opacity:1.0; 
stroke:#000000; stroke-width:39.3701; stroke-opacity:1; 
stroke-linecap:round; stroke-linejoin:round;">
</g>
<g style="fill:#000000; fill-opacity:1.0; 
stroke:#000000; stroke-width:275.591; stroke-opacity:1; 
stroke-linecap:round; stroke-linejoin:round;">
</g>
<g style="fill:#000000; fill-opacity:0.0; 
stroke:#000000; stroke-width:275.591; stroke-opacity:1; 
stroke-linecap:round; stroke-linejoin:round;">
<path d="M96996 69618
L97000 69614
" />
<path d="M96626 69988
L97000 69614
" />
<path d="M95705 69988
L95705 70602
" />
<path d="M95705 69988
L96626 69988
" />
<path d="M94973 69988
L95705 69988
" />
<path d="M95705 70602
L96402 71299
" />
<path d="M96402 71299
L96402 72051
" />
<path d="M96402 72051
L96402 72244
" />
<path d="M96402 72244
L96048 72598
" />
<path d="M96048 72598
L94130 72598
" />
</g>
<g style="fill:#000000; fill-opacity:0.0; 
stroke:#000000; stroke-width:216.535; stroke-opacity:1; 
stroke-linecap:round; stroke-linejoin:round;">
<path d="M94130 72598
L92815 72598
" />
</g>
<g style="fill:#000000; fill-opacity:0.0; 
stroke:#000000; stroke-width:275.591; stroke-opacity:1; 
stroke-linecap:round; stroke-linejoin:round;">
<path d="M91725 70984
L92193 70984
" />
<path d="M91697 72598
L91481 72381
" />
<path d="M92815 72598
L91697 72598
" />
<path d="M91481 71220
L91721 70980
" />
<path d="M91481 72381
L91481 71220
" />
<path d="M91721 70980
L91725 70984
" />
<path d="M99453 68141
L99453 68149
" />
<path d="M97000 67779
L97000 69614
" />
<path d="M97469 67311
L97000 67779
" />
<path d="M99453 68149
L99453 68145
" />
<path d="M98618 67311
L97469 67311
" />
<path d="M99453 68145
L98618 67311
" />
<path d="M100725 69437
L102107 69437
" />
<path d="M99874 68586
L100725 69437
" />
<path d="M99437 68157
L99867 68586
" />
<path d="M99867 68586
L99874 68586
" />
<path d="M100725 70159
L100725 69437
" />
<path d="M100325 70559
L100725 70159
" />
<path d="M99922 70559
L100325 70559
" />
</g>
<g style="fill:#000000; fill-opacity:0.0; 
stroke:#000000; stroke-width:216.535; stroke-opacity:1; 
stroke-linecap:round; stroke-linejoin:round;">
<path d="M101370 70405
L101370 71288
" />
<path d="M100725 70159
L101124 70159
" />
<path d="M101124 70159
L101370 70405
" />
</g>
<g style="fill:#000000; fill-opacity:0.0; 
stroke:#000000; stroke-width:275.591; stroke-opacity:1; 
stroke-linecap:round; stroke-linejoin:round;">
<path d="M92197 69988
L92193 69984
" />
<path d="M94107 69988
L92197 69988
" />
<path d="M97008 70724
L97000 70716
" />
<path d="M98075 70724
L97008 70724
" />
<path d="M92193 69984
L91815 69984
" />
<path d="M91815 69984
L91067 70732
" />
<path d="M91067 70732
L91067 72661
" />
<path d="M91544 73137
L93433 73137
" />
<path d="M91067 72661
L91544 73137
" />
<path d="M97000 72146
L96996 72150
" />
<path d="M97000 70716
L97000 72146
" />
<path d="M96996 72150
L96996 72496
" />
<path d="M96355 73137
L93433 73137
" />
<path d="M96996 72496
L96355 73137
" />
<path d="M103079 70421
L102107 70421
" />
<path d="M104831 72145
L104804 72145
" />
<path d="M104804 72145
L103079 70421
" />
</g>
<g style="fill:#000000; fill-opacity:0.0; 
stroke:#000000; stroke-width:216.535; stroke-opacity:1; 
stroke-linecap:round; stroke-linejoin:round;">
<path d="M102107 71268
L102126 71288
" />
<path d="M102107 70421
L102107 71268
" />
<path d="M104831 72696
L104229 73299
" />
<path d="M104831 72145
L104831 72696
" />
<path d="M104229 73299
L99898 73299
" />
<path d="M99548 72948
L99548 72771
" />
<path d="M99898 73299
L99548 72948
" />
<path d="M99548 70559
L99548 70984
" />
<path d="M99548 70984
L99548 71141
" />
<path d="M99548 72771
L99548 72771
" />
<path d="M99548 71141
L99548 71141
" />
</g>
<g style="fill:#000000; fill-opacity:0.0; 
stroke:#000000; stroke-width:275.591; stroke-opacity:1; 
stroke-linecap:round; stroke-linejoin:round;">
<path d="M97272 72771
L96996 72496
" />
<path d="M99548 72771
L97272 72771
" />
<path d="M98055 68389
L97839 68173
" />
<path d="M99922 69692
L99922 69653
" />
<path d="M98048 69594
L98075 69622
" />
<path d="M99922 69612
L99313 69003
" />
<path d="M99922 69692
L99922 69612
" />
<path d="M98048 68169
L98048 69003
" />
<path d="M98048 69003
L98048 69594
" />
<path d="M98882 69003
L98048 68169
" />
<path d="M99313 69003
L98882 69003
" />
<path d="M103457 68145
L103453 68149
" />
<path d="M104831 68145
L103457 68145
" />
<path d="M93784 67905
L94048 68169
" />
<path d="M92932 67905
L93784 67905
" />
<path d="M92197 71980
L92193 71984
" />
<path d="M93778 72035
L93433 72035
" />
<path d="M94107 71706
L93778 72035
" />
<path d="M94107 70362
L94107 71706
" />
<path d="M92244 72035
L92193 71984
" />
<path d="M93433 72035
L92244 72035
" />
<path d="M92194 68983
L92193 68984
" />
<path d="M92194 67905
L92194 68983
" />
<path d="M93477 68984
L94107 69614
" />
<path d="M92193 68984
L93477 68984
" />
<path d="M94973 70362
L94973 70791
" />
<path d="M94996 70791
L95229 71023
" />
<path d="M95229 71023
L95229 71633
" />
<path d="M94973 70791
L94996 70791
" />
</g>
<g style="fill:#000000; fill-opacity:0.0; 
stroke:#000000; stroke-width:216.535; stroke-opacity:1; 
stroke-linecap:round; stroke-linejoin:round;">
<path d="M100807 72019
L100433 71645
" />
<path d="M101088 72019
L100807 72019
" />
<path d="M101370 72026
L101095 72026
" />
<path d="M101095 72026
L101088 72019
" />
<path d="M102965 71653
L103111 71653
" />
<path d="M102738 72026
L103111 71653
" />
<path d="M102126 72026
L102738 72026
" />
</g>
<g style="fill:#000000; fill-opacity:0.0; 
stroke:#000000; stroke-width:275.591; stroke-opacity:1; 
stroke-linecap:round; stroke-linejoin:round;">
<path d="M94973 69210
L95144 69039
" />
<path d="M94973 69614
L94973 69210
" />
<path d="M95144 69039
L96008 69039
" />
<path d="M96008 69039
L96008 69039
" />
</g>
<g style="fill:#000000; fill-opacity:0.0; 
stroke:#000000; stroke-width:216.535; stroke-opacity:1; 
stroke-linecap:round; stroke-linejoin:round;">
<path d="M100441 72653
L100433 72645
" />
<path d="M103111 72653
L100441 72653
" />
<path d="M100433 72645
L100327 72645
" />
</g>
<g style="fill:#000000; fill-opacity:0.0; 
stroke:#000000; stroke-width:275.591; stroke-opacity:1; 
stroke-linecap:round; stroke-linejoin:round;">
<path d="M99174 70559
L98902 70830
" />
<path d="M99721 71933
L100433 72645
" />
<path d="M99669 71933
L99661 71925
" />
<path d="M99721 71933
L99669 71933
" />
<path d="M99661 71925
L99193 71925
" />
<path d="M98902 71633
L98902 70830
" />
<path d="M99193 71925
L98902 71633
" />
<path d="M98611 71633
L98607 71629
" />
<path d="M98902 71633
L98611 71633
" />
</g>
<g >
</g>
</g> 
</svg>
